<?xml version="1.0" standalone="no"?>
<!DOCTYPE svg PUBLIC "-//W3C//DTD SVG 20010904//EN"
 "http://www.w3.org/TR/2001/REC-SVG-20010904/DTD/svg10.dtd">
<svg version="1.0" xmlns="http://www.w3.org/2000/svg"
 width="144.000000pt" height="144.000000pt" viewBox="0 0 144.000000 144.000000"
 preserveAspectRatio="xMidYMid meet">
<metadata>
Created by potrace 1.14, written by Peter Selinger 2001-2017
</metadata>
<g transform="translate(0.000000,144.000000) scale(0.100000,-0.100000)"
fill="#000000" stroke="none">
<path d="M0 720 l0 -720 720 0 720 0 0 720 0 720 -720 0 -720 0 0 -720z m555
290 c3 -5 19 -10 35 -10 16 0 32 5 35 10 3 6 17 10 31 10 13 0 24 -4 24 -10 0
-5 15 -10 34 -10 19 0 38 5 41 10 3 6 17 10 31 10 13 0 24 -4 24 -10 0 -5 16
-10 35 -10 19 0 35 5 35 10 0 23 49 8 83 -27 l37 -36 0 -299 0 -298 -275 0
-275 0 0 279 c0 153 -3 292 -6 308 -6 30 18 69 36 58 4 -3 13 2 20 10 14 17
46 20 55 5z"/>
</g>
</svg>
